HIERARCHY
ROOT Hips
{
    OFFSET 0.000000 0.000000 0.000000
    CHANNELS 6 Xposition Yposition Zposition Zrotation Xrotation Yrotation
    JOINT Spine
    {
        OFFSET -0.000000 7.236184 0.000000
        CHANNELS 3 Zrotation Xrotation Yrotation
        JOINT Spine1
        {
            OFFSET -0.000000 20.420147 0.000000
            CHANNELS 3 Zrotation Xrotation Yrotation
            JOINT Neck
            {
                OFFSET -0.000000 20.336288 1.848754
                CHANNELS 3 Zrotation Xrotation Yrotation
                JOINT Head
                {
                    OFFSET -0.000000 12.354461 -1.764923
                    CHANNELS 3 Zrotation Xrotation Yrotation
                    End Site
                    {
                        OFFSET -0.000000 22.061537 0.000000
                    }
                }
            }
            JOINT LeftShoulder
            {
                OFFSET 3.573296 18.396038 -0.314103
                CHANNELS 3 Zrotation Xrotation Yrotation
                JOINT LeftArm
                {
                    OFFSET 10.880760 0.000000 0.000000
                    CHANNELS 3 Zrotation Xrotation Yrotation
                    JOINT LeftForeArm
                    {
                        OFFSET 27.185530 0.000000 0.000000
                        CHANNELS 3 Zrotation Xrotation Yrotation
                        JOINT LeftHand
                        {
                            OFFSET 27.825975 0.000000 0.000000
                            CHANNELS 3 Zrotation Xrotation Yrotation
                            End Site
                            {
                                OFFSET 13.236923 0.000000 0.000000
                            }
                        }
                    }
                }
            }
            JOINT RightShoulder
            {
                OFFSET -3.474926 18.396038 -0.314103
                CHANNELS 3 Zrotation Xrotation Yrotation
                JOINT RightArm
                {
                    OFFSET -10.880760 0.000000 0.000000
                    CHANNELS 3 Zrotation Xrotation Yrotation
                    JOINT RightForeArm
                    {
                        OFFSET -27.185530 0.000000 0.000000
                        CHANNELS 3 Zrotation Xrotation Yrotation
                        JOINT RightHand
                        {
                            OFFSET -27.825975 0.000000 0.000000
                            CHANNELS 3 Zrotation Xrotation Yrotation
                            End Site
                            {
                                OFFSET -13.236923 0.000000 0.000000
                            }
                        }
                    }
                }
            }
        }
    }
    JOINT LeftUpLeg
    {
        OFFSET 8.824615 0.000000 0.000000
        CHANNELS 3 Zrotation Xrotation Yrotation
        JOINT LeftLeg
        {
            OFFSET -0.000000 -35.111282 0.000000
            CHANNELS 3 Zrotation Xrotation Yrotation
            JOINT LeftFoot
            {
                OFFSET -0.000000 -42.324711 0.000000
                CHANNELS 3 Zrotation Xrotation Yrotation
                JOINT LeftToeBase
                {
                    OFFSET -0.000000 -5.735999 13.236923
                    CHANNELS 3 Zrotation Xrotation Yrotation
                    End Site
                    {
                        OFFSET -0.000000 0.000000 3.529846
                    }
                }
            }
        }
    }
    JOINT RightUpLeg
    {
        OFFSET -8.824615 0.000000 0.000000
        CHANNELS 3 Zrotation Xrotation Yrotation
        JOINT RightLeg
        {
            OFFSET -0.000000 -35.111282 0.000000
            CHANNELS 3 Zrotation Xrotation Yrotation
            JOINT RightFoot
            {
                OFFSET -0.000000 -42.324711 0.000000
                CHANNELS 3 Zrotation Xrotation Yrotation
                JOINT RightToeBase
                {
                    OFFSET -0.000000 -5.735999 13.236923
                    CHANNELS 3 Zrotation Xrotation Yrotation
                    End Site
                    {
                        OFFSET -0.000000 0.000000 3.529846
                    }
                }
            }
        }
    }
}
MOTION
Frames:    14
Frame Time:    0.008333
3.945851    82.428398    113.196030    -1.025700    -13.954247    -175.923889    -3.026277    -15.473948    -0.252994    0.536286    9.608629    0.113374    2.928155    8.299043    -2.793005    6.148657    -6.646674    -1.897337    0.295814    15.189847    -3.398755    -34.600555    43.506161    -53.166351    0.033912    -1.553191    -13.365214    14.305672    -1.579396    -0.240383    4.631112    16.961424    -3.424994    42.853573    39.734039    37.191498    -5.758493    -9.319335    19.019798    -20.216291    -8.181415    -1.042375    9.286376    -20.624828    0.879767    0.153541    14.390749    0.723635    -7.193116    -4.484130    -1.621932    16.125828    -22.585915    -18.776119    -15.216821    -11.913363    -1.094133    3.108580    4.945282    -0.055422    9.729734    -4.315042    -11.891806    -0.718431    -0.343714    0.777406    
3.953013    82.426384    113.175224    -1.023987    -13.925092    -175.941711    -3.053529    -15.467651    -0.253165    0.546494    9.588385    0.115736    2.916988    8.296762    -2.799111    6.134370    -6.578125    -1.909331    0.333279    15.086784    -3.496298    -34.502693    43.325500    -53.185848    -0.008124    -1.437713    -13.162586    14.516610    -1.455117    -0.129152    4.582589    16.879345    -3.379900    42.824604    39.392818    37.278965    -5.885219    -9.382411    19.074297    -20.254765    -8.215315    -1.071265    9.300034    -20.549253    0.806465    0.131057    14.332110    0.869196    -7.967653    -4.799070    -2.846735    14.722960    -18.764950    -16.970034    -15.172783    -11.907292    -1.121844    3.053671    4.989880    -0.118426    9.718741    -4.304165    -11.770154    -0.720931    -0.333745    0.780100    
3.960099    82.424370    113.154686    -1.022267    -13.896934    -175.957977    -3.080039    -15.461487    -0.253304    0.555502    9.567595    0.118771    2.905998    8.294460    -2.805641    6.120684    -6.511872    -1.921563    0.370376    14.984400    -3.593024    -34.409718    43.142551    -53.201805    -0.048978    -1.325747    -12.962495    14.724405    -1.334808    -0.027170    4.534002    16.797888    -3.334572    42.797653    39.054344    37.365322    -6.012833    -9.448020    19.130987    -20.292059    -8.250612    -1.104250    9.313190    -20.475969    0.734214    0.109293    14.275033    1.010700    -8.677586    -5.093645    -4.089390    13.089312    -15.117112    -14.954757    -15.128445    -11.902508    -1.152430    2.996965    5.035436    -0.184442    9.709900    -4.293109    -11.643808    -0.723447    -0.323595    0.782811    
3.966980    82.422401    113.134766    -1.020517    -13.870851    -175.971146    -3.104536    -15.455370    -0.252365    0.561455    9.545577    0.121999    2.895492    8.291523    -2.812992    6.109144    -6.449838    -1.934010    0.407243    14.884283    -3.686632    -34.324818    42.957314    -53.213245    -0.085934    -1.222395    -12.770539    14.923882    -1.223957    0.061963    4.486304    16.718237    -3.289629    42.771957    38.724606    37.449707    -6.140749    -9.517215    19.191843    -20.327044    -8.288346    -1.141583    9.325315    -20.407545    0.664024    0.088751    14.221310    1.144857    -9.297314    -5.353668    -5.279188    11.343215    -11.865271    -12.866123    -15.083819    -11.899778    -1.186515    2.937590    5.081823    -0.256941    9.705256    -4.281525    -11.510027    -0.725722    -0.313999    0.785262    
3.973540    82.420486    113.115738    -1.018694    -13.847672    -175.979874    -3.126518    -15.449610    -0.250904    0.563736    9.522439    0.126232    2.886054    8.288145    -2.821344    6.099307    -6.394236    -1.946914    0.443699    14.787126    -3.776128    -34.251041    42.769672    -53.218502    -0.116598    -1.130966    -12.591767    15.113262    -1.125586    0.137255    4.439356    16.641331    -3.245251    42.747025    38.408016    37.531338    -6.268959    -9.591109    19.258583    -20.358477    -8.329517    -1.183367    9.335884    -20.345833    0.596677    0.069982    14.171960    1.268916    -9.820471    -5.573309    -6.366457    9.607432    -9.117674    -10.834762    -15.039186    -11.899437    -1.224021    2.875327    5.128581    -0.337786    9.705853    -4.269236    -11.368323    -0.727700    -0.305180    0.787394    
3.979759    82.418617    113.097595    -1.016610    -13.827832    -175.983276    -3.145641    -15.444355    -0.248621    0.561942    9.497722    0.131333    2.877471    8.284429    -2.830934    6.091915    -6.345993    -1.960316    0.479556    14.693074    -3.861144    -34.188908    42.578133    -53.216858    -0.138858    -1.052274    -12.429319    15.294762    -1.040510    0.200148    4.393238    16.566971    -3.201263    42.721554    38.105141    37.610043    -6.398294    -9.671020    19.333485    -20.385790    -8.375100    -1.229960    9.344705    -20.291597    0.532300    0.053315    14.127084    1.382851    -10.256473    -5.754206    -7.334179    7.964631    -6.864728    -8.941792    -14.994586    -11.901518    -1.265019    2.810327    5.175601    -0.427741    9.711729    -4.256287    -11.218640    -0.729245    -0.297094    0.789055    
3.985617    82.416763    113.080338    -1.014061    -13.811522    -175.980408    -3.161623    -15.439561    -0.245508    0.555694    9.471289    0.137212    2.870419    8.280174    -2.841815    6.086296    -6.305454    -1.974455    0.515253    14.601899    -3.941659    -34.139797    42.381672    -53.206970    -0.150745    -0.986692    -12.286488    15.470633    -0.968688    0.252125    4.347963    16.495007    -3.157649    42.694233    37.816753    37.686039    -6.529614    -9.757961    19.418287    -20.408089    -8.425828    -1.281476    9.351556    -20.245253    0.471132    0.039139    14.086500    1.486877    -10.616977    -5.899440    -8.177368    6.471803    -5.059105    -7.240588    -14.950686    -11.905555    -1.310607    2.743658    5.222490    -0.523483    9.721947    -4.243165    -11.064169    -0.730199    -0.289180    0.790080    
3.991055    82.414948    113.064041    -1.010840    -13.798961    -175.970673    -3.174345    -15.435187    -0.241583    0.545391    9.443128    0.143763    2.864595    8.275427    -2.854061    6.083038    -6.273023    -1.989192    0.550007    14.513927    -4.016789    -34.104450    42.181454    -53.188408    -0.150834    -0.934650    -12.166524    15.642220    -0.910320    0.294136    4.304040    16.425684    -3.114609    42.664146    37.545261    37.758408    -6.662107    -9.851501    19.513557    -20.424652    -8.481480    -1.336972    9.356280    -20.207232    0.414155    0.028002    14.050131    1.580284    -10.911238    -6.012115    -8.893951    5.169889    -3.645952    -5.768693    -14.908605    -11.910784    -1.360405    2.677570    5.268218    -0.620169    9.734782    -4.230762    -10.910989    -0.730753    -0.281715    0.790671    
3.996075    82.413139    113.048599    -1.006788    -13.790146    -175.953781    -3.183879    -15.431453    -0.236898    0.531237    9.413525    0.150848    2.860407    8.270186    -2.867515    6.081507    -6.248672    -2.004587    0.584339    14.428998    -4.086818    -34.083294    41.976372    -53.161049    -0.138322    -0.895560    -12.071017    15.812234    -0.864785    0.327479    4.261219    16.358791    -3.071916    42.629597    37.290493    37.828106    -6.796376    -9.951803    19.619959    -20.434044    -8.542298    -1.395378    9.358793    -20.177174    0.362047    0.020332    14.017131    1.663645    -11.151640    -6.096945    -9.497230    4.061653    -2.549110    -4.522941    -14.869157    -11.916357    -1.413087    2.613961    5.311896    -0.714983    9.748466    -4.219709    -10.763750    -0.731077    -0.273683    0.791013    
4.000685    82.411339    113.034012    -1.001593    -13.784917    -175.929459    -3.190196    -15.428222    -0.231718    0.513677    9.382481    0.158467    2.858067    8.264296    -2.882096    6.081413    -6.231805    -2.020607    0.617840    14.347204    -4.151372    -34.075939    41.767448    -53.125092    -0.112433    -0.869579    -12.001854    15.981560    -0.831868    0.353392    4.219948    16.294207    -3.029576    42.589344    37.053665    37.894878    -6.932317    -10.058057    19.737555    -20.434387    -8.607688    -1.455447    9.359159    -20.154774    0.315659    0.016649    13.986904    1.737463    -11.347965    -6.157579    -10.000268    3.140997    -1.706128    -3.492357    -14.833072    -11.920985    -1.466321    2.554964    5.351910    -0.804787    9.760886    -4.210537    -10.628463    -0.731538    -0.264414    0.791501    
4.004835    82.409584    113.020233    -0.995299    -13.782936    -175.898148    -3.193502    -15.425588    -0.226083    0.493370    9.350839    0.166389    2.857523    8.258663    -2.897486    6.082918    -6.223123    -2.036894    0.650580    14.269021    -4.210175    -34.082573    41.556965    -53.080997    -0.073491    -0.856661    -11.960424    16.150194    -0.811589    0.372678    4.180480    16.232430    -2.987604    42.542980    36.836700    37.958427    -7.068727    -10.168090    19.864998    -20.423939    -8.676153    -1.515011    9.357255    -20.139006    0.275793    0.017342    13.958449    1.802148    -11.507412    -6.197217    -10.414974    2.396266    -1.066654    -2.661243    -14.801388    -11.923375    -1.516515    2.503002    5.386744    -0.887184    9.770368    -4.203987    -10.511003    -0.732552    -0.253325    0.792587    
4.008575    82.407867    113.006851    -0.987927    -13.783637    -175.860001    -3.194246    -15.423663    -0.219827    0.470712    9.318879    0.174693    2.858549    8.252604    -2.913809    6.086158    -6.220671    -2.053628    0.682897    14.193363    -4.264318    -34.102215    41.342915    -53.028790    -0.020961    -0.856769    -11.946708    16.321079    -0.803588    0.386705    4.142343    16.172297    -2.945195    42.488914    36.636936    38.019936    -7.207979    -10.282283    20.003325    -20.400494    -8.747664    -1.573596    9.352906    -20.128136    0.242334    0.022725    13.929885    1.860477    -11.639822    -6.219244    -10.763906    1.793023    -0.576162    -1.989541    -14.773930    -11.922579    -1.562824    2.458107    5.416110    -0.962236    9.775957    -4.200015    -10.411945    -0.734732    -0.239342    0.794929    
4.011790    82.406311    112.993874    -0.980127    -13.786201    -175.816406    -3.193010    -15.421873    -0.212820    0.446386    9.287228    0.183330    2.861380    8.246863    -2.930676    6.090866    -6.224352    -2.070447    0.714513    14.121456    -4.312964    -34.133606    41.129482    -52.970253    0.043854    -0.870026    -11.961074    16.492376    -0.808032    0.396212    4.106194    16.114565    -2.903018    42.427967    36.456902    38.078815    -7.347857    -10.397027    20.149607    -20.363213    -8.819588    -1.628928    9.345563    -20.120478    0.215925    0.033087    13.900329    1.913279    -11.749244    -6.225663    -11.055860    1.317828    -0.207346    -1.461299    -14.751356    -11.917651    -1.603054    2.421023    5.439091    -1.029635    9.777007    -4.198359    -10.332761    -0.738710    -0.222417    0.799215    
4.014416    82.404991    112.980843    -0.972807    -13.789394    -175.768524    -3.190734    -15.419899    -0.205221    0.420566    9.256611    0.192984    2.865910    8.241161    -2.948016    6.097235    -6.232633    -2.087308    0.745908    14.052778    -4.356730    -34.175461    40.917267    -52.906067    0.120832    -0.896655    -12.003101    16.664974    -0.824988    0.402519    4.071735    16.059076    -2.860701    42.359489    36.295479    38.136105    -7.489425    -10.511595    20.303524    -20.312132    -8.891034    -1.680670    9.334369    -20.113260    0.196515    0.048601    13.867918    1.963367    -11.841249    -6.218490    -11.306456    0.944634    0.070848    -1.046956    -14.733910    -11.907586    -1.636949    2.391195    5.455945    -1.090443    9.773286    -4.198566    -10.271589    -0.745385    -0.202094    0.806414    
